<?xml version="1.0" encoding="UTF-8"?>
<!DOCTYPE svg PUBLIC "-//W3C//DTD SVG 1.1//EN" "http://www.w3.org/Graphics/SVG/1.1/DTD/svg11.dtd">
<!-- Creator: CorelDRAW 2019 (64-Bit) -->
<svg xmlns="http://www.w3.org/2000/svg" xml:space="preserve" width="1650px" height="540px" version="1.1" style="shape-rendering:geometricPrecision; text-rendering:geometricPrecision; image-rendering:optimizeQuality; fill-rule:evenodd; clip-rule:evenodd"
viewBox="0 0 1650 540"
 xmlns:xlink="http://www.w3.org/1999/xlink"
 xmlns:xodm="http://www.corel.com/coreldraw/odm/2003">
 <defs>
  <style type="text/css">
   <![CDATA[
    .fil0 {fill:none}
    .fil1 {fill:#CF2E2E}
   ]]>
  </style>
 </defs>
 <g id="Layer_x0020_1">
  <metadata id="CorelCorpID_0Corel-Layer"/>
  <g id="_2222389351008">
   <rect class="fil0" width="1650" height="540"/>
   <path class="fil1" d="M1039.57 341.06l31.25 0 0 -78.12c1.86,2.14 3.43,3.95 5.62,6.1l60.6 68.29c4.2,5.52 8.03,3.73 19.71,3.73 8.14,0 16.28,0 24.41,0l-20.27 -22.7c-3.43,-3.9 -7.18,-6.88 -10.74,-10.73 -2.2,-2.37 -2.54,-3.49 -4.85,-5.89l-37.62 -39.53c-2.42,-2.39 -2.89,-2.92 -5.05,-5.69 -2.13,-2.75 -3.68,-3.64 -5.45,-6.28l73.93 -78.4c3.71,-4.44 9.31,-9.64 10.05,-12.41l-35.2 -0.05c-5.8,-0.06 -6.17,-0.73 -8.95,2.76l-21.99 25.86c-6.32,6.49 -41.17,48.5 -44.2,50.53l0.08 -134.85c0.07,-9.17 1.69,-6.75 -31.33,-6.75l0 244.13z"/>
   <path class="fil1" d="M562.06 341.06l122.06 0c0,-14.08 2.17,-24.41 -2.93,-24.41l-87.89 0 0 -79.1 81.06 0 0 -23.44 -81.06 0 0 -77.14 87.89 0c5.1,0 2.93,-10.34 2.93,-24.41l-122.06 0 0 228.5z"/>
   <path class="fil1" d="M768.1 186.77c0,-4.88 -0.01,-9.77 0,-14.65 0.05,-15.58 4.95,-12.69 -28.32,-12.69 -2.25,0 -2.93,0.68 -2.93,2.93l0 178.7 31.25 0 0 -108.39c0,-19.23 9.39,-36 24.45,-43.91 16.64,-8.72 49.62,-7.67 63.45,11.67 7.12,9.94 10.73,21.08 10.73,38.1l0 102.53 30.27 0 0 -108.39c0,-10.81 -2.02,-23.12 -5.02,-31.11 -5.59,-14.92 -11.73,-22.44 -23.29,-31.4 -16.77,-13.02 -40.56,-16.05 -61.11,-11.29 -14,3.25 -25.42,10.68 -34.32,21.34 -2.19,2.62 -2.59,4.68 -5.16,6.56z"/>
   <path class="fil1" d="M1335.45 187.75c0,-5.21 -0.01,-10.42 0,-15.63 0.05,-15.58 4.95,-12.69 -28.32,-12.69 -2.25,0 -2.92,0.68 -2.92,2.93l0 178.7 31.24 0 0 -107.42c0,-26.63 17.26,-49.8 44.92,-49.8 11.02,0 19.2,-0.35 29.26,4.92 15.86,8.33 24.45,25.78 24.45,45.86l0 106.44 30.27 0 0 -109.37c0,-19.85 -5.69,-39.35 -18.78,-53.48 -6.05,-6.52 -13.05,-11.26 -21.21,-14.92 -16.06,-7.2 -32.13,-8.42 -49.42,-4.42 -15.92,3.69 -28.04,12.56 -36.94,25.57l-2.55 3.31z"/>
   <path class="fil1" d="M952.66 341.06l30.27 0 0 -178.7c0,-2.25 -0.68,-2.93 -2.93,-2.93l-27.34 0 0 181.63z"/>
   <path class="fil1" d="M1217.29 341.06l30.28 0 0 -178.7c0,-2.25 -0.68,-2.93 -2.93,-2.93l-27.35 0 0 181.63z"/>
   <path class="fil1" d="M584.52 422.11l-9.77 0 0 -34.18c16.33,0 37.11,-3.32 37.11,16.6 0,16.63 -13.57,17.58 -27.34,17.58zm-22.46 -41.99l0 86.91c0,4.17 3.74,2.93 12.69,2.93l0 -38.09c13.53,0 10.49,-3.24 23.48,18.51 1.96,3.28 3.99,5.89 6.13,9.5 2.26,3.84 4.24,6.67 6.52,10.08l14.65 0c-0.95,-4.06 -9.19,-15.25 -11.91,-19.34 -2.67,-4 -11.52,-16.04 -12.5,-19.72 7.18,-0.6 12.98,-4.19 16.85,-8.54 10.17,-11.41 14.67,-45.17 -32.48,-45.17 -13.79,0 -23.43,-2.1 -23.43,2.93z"/>
   <path class="fil1" d="M1257.33 406.48c27.19,0 33.34,40.11 10.16,51.18 -9.9,4.73 -21.7,1.04 -27.35,-5.66 -13.58,-16.09 -6.42,-45.52 17.19,-45.52zm-37.11 26.37c0,3.85 1.92,12.42 3.05,15.51 3.07,8.44 6.43,11.11 11.81,15.53 11.38,9.37 30.21,9.82 41.56,-1.96 2.07,-2.14 3.18,-4.23 5.1,-5.64l0 13.67c8.95,0 12.7,1.24 12.7,-2.93l0 -70.31 -12.7 0 0 12.69c-1.87,-1.37 -2.43,-2.82 -4.12,-4.66 -1.76,-1.91 -3.17,-2.93 -5.42,-4.34 -21.3,-13.35 -51.98,1.42 -51.98,32.44z"/>
   <path class="fil1" d="M777.86 433.83c0,-38.06 47.85,-33.99 47.85,-2.93 0,9.91 -0.3,14.66 -7.1,22.19 -3.64,4.03 -10.57,6.89 -17.2,6.73 -13.17,-0.3 -23.55,-11.76 -23.55,-25.99zm-12.69 -5.86c0,13.31 0.41,22.35 10.48,32.49 3.35,3.37 5.97,5.49 10.19,7.39 8.93,4.01 21.48,4.22 29.71,-1.22 1.48,-0.98 4.34,-3.12 5.54,-4.23 2.57,-2.4 2.14,-3.32 4.62,-5.14 0,14.22 -2.53,12.7 12.7,12.7l0 -73.24 -12.7 0 0 12.69c-9.66,-11.11 -13.35,-13.67 -28.32,-13.67 -18.37,0 -32.22,18.13 -32.22,32.23z"/>
   <path class="fil1" d="M719.27 427.97l-43.94 0c0,-29.45 43.94,-29.43 43.94,0zm-19.88 42.97l-2.47 0c-17.26,-0.55 -35.26,-12.8 -35.26,-37.11 0,-11.93 3.6,-19.65 8.75,-26.41 7.9,-10.37 18.95,-11.68 30.31,-11.68 15.76,0 28.68,12.86 31,25.64 2.46,13.55 0.4,9.78 0.25,16.35l-57.61 0c1.66,7.16 1.75,11.18 6.53,15.92 12.01,11.89 32.37,6.36 35.45,-5.17l13.68 0c-1.41,6.05 -7.22,12.29 -11.55,15.79 -5.2,4.2 -12,6.43 -19.08,6.67z"/>
   <path class="fil1" d="M1458.49 427.97l-44.92 0c1.13,-2.35 1.83,-21.92 22.45,-21.97 12.62,-0.02 22.47,8.28 22.47,21.97zm-19.73 42.97l-5.17 0c-16.93,-1.22 -32.71,-14.36 -32.71,-39.07 0,-36.28 43.62,-48.28 64.19,-23.17 8.29,10.11 6.12,21.23 6.12,29.03l-57.62 0c1.82,21.79 22.75,27.39 35.34,18.74 4.48,-3.08 4.18,-3.32 6.65,-7.99l13.67 0c-1.91,3.98 -1.74,5.28 -4.71,8.96 -6.73,8.34 -16.19,12.81 -25.76,13.5z"/>
   <path class="fil1" d="M974.14 380.12l0 86.91c0,2.25 0.68,2.93 2.93,2.93l43.95 0c4.46,0 4.46,-10.74 0,-10.74l-34.18 0 0 -31.25 30.27 0c4.36,0 4.36,-9.77 0,-9.77l-30.27 0 0 -30.27 34.18 0c4.46,0 4.46,-10.74 0,-10.74l-43.95 0c-2.25,0 -2.93,0.68 -2.93,2.93z"/>
   <path class="fil1" d="M1061.05 417.23c0,5.26 2.62,10.31 5.57,12.98 10.7,9.72 37.4,4.83 37.4,20.22 0,11.56 -20.39,12.49 -26.48,5.97 -2.8,-3 -2.18,-5.53 -3.79,-8.9l-12.7 0c0.55,6.59 4.1,13.88 8.18,17.21 10.35,8.44 30.66,8.84 41.91,-2.28 9.49,-9.38 6.21,-23.85 -6.11,-29.61 -10.69,-4.99 -31.28,-3.51 -31.28,-16.57 0,-11.92 19,-13.69 25.17,-6.62 1.42,1.63 1.81,2.79 2.64,5.18 1.72,4.97 -1.12,4.37 11.25,4.37 4.27,0 2.1,-5.14 1.16,-7.96 -8.11,-24.08 -52.92,-19.08 -52.92,6.01z"/>
   <path class="fil1" d="M1338.38 381.1l0 15.62 -8.79 0 0 10.74 8.79 0 0 38.09c0,23.21 9.7,24.41 29.3,24.41 3.98,0 2.93,-3.06 2.93,-10.74 -23.47,0 -19.53,4.3 -19.53,-51.76 22.11,0 19.53,1.98 19.53,-7.81 0,-4.74 -7.11,-2.93 -19.53,-2.93l0 -18.55c-8.95,0 -12.7,-1.24 -12.7,2.93z"/>
   <path class="fil1" d="M1158.7 396.72l-9.76 0c0,12.44 -1.66,10.74 9.76,10.74l0 45.9c0,16.12 15.48,16.6 28.32,16.6 3.99,0 2.93,-3.06 2.93,-10.74 -23.39,0 -18.55,5.96 -18.55,-51.76 21.65,0 18.55,2.58 18.55,-10.74l-18.55 0c0,-21.97 2.99,-18.55 -12.7,-18.55l0 18.55z"/>
   <path class="fil1" d="M1212.41 108.65c0,32.55 41.02,26.88 41.02,1.95 0,-27.7 -41.02,-25.96 -41.02,-1.95z"/>
   <path class="fil1" d="M947.78 108.65c0,32.41 40.78,27.1 40.78,1.95 0,-27.61 -40.78,-26.34 -40.78,-1.95z"/>
   <path class="fil1" d="M880.4 467.03c0,3.89 2.76,2.93 9.76,2.93 2.25,0 2.93,-0.68 2.93,-2.93l0 -95.7 -12.69 0 0 95.7z"/>
   <g>
    <path class="fil1" d="M81.62 351.72l0 128.26 247.66 0 0 -128.26c-17,-1.41 -16.9,-6.17 -30.91,-13.31 -84.23,-42.96 -79.94,-61.89 -122.97,-34.43l-59.9 32.98c-15.17,7.53 -17.43,13.4 -33.88,14.76z"/>
    <path class="fil1" d="M152.38 201.36l0 39.8c14.23,-7.52 41.51,-28.5 59.37,-24.19l114.52 62.58c24.82,12.96 65.14,33.04 41.1,66.04 -6.5,8.93 -9.53,5.34 -20.4,10.56l0 88.45 88.44 0 0 -243.24c-24.83,-2.06 -123.22,-70.76 -141.51,-70.76 -9.21,0 -28.77,12.02 -36.29,16.79 -12.64,8.02 -22.48,11.68 -34.42,18.65 -12.15,7.09 -18.97,11.7 -33.95,19.11 -14.52,7.18 -21.37,14.92 -36.86,16.21z"/>
    <path class="fil1" d="M125.84 161.56l0 26.54c26.17,0 29.88,0.94 55.75,-15.02 15.25,-9.4 101.32,-60.17 112.31,-60.17 11.14,0 95.49,49.42 109.65,58.4 27.31,17.33 30.38,16.79 58.4,16.79l0 -26.54c-173.98,-92.06 -151.38,-103.9 -209.6,-68.08 -15.26,9.39 -28.55,13.54 -43.39,22.95 -14.71,9.33 -24.78,12.87 -40.42,21.49l-42.7 23.64z"/>
    <path class="fil1" d="M55.09 311.92l0 26.54c35.92,0 40.13,-5.42 83.97,-31.01 74.22,-43.33 54.41,-48.2 130.05,-1.69 40.43,24.86 52.53,32.7 86.7,32.7l0 -26.54c-24.26,-12.83 -139.03,-79.6 -150.36,-79.6 -10.33,0 -30.64,13.36 -38.9,18.6 -12.88,8.16 -24.31,12.13 -37.19,20.3l-74.27 40.7z"/>
   </g>
  </g>
 </g>
</svg>
